<?xml version="1.0" encoding="UTF-8"?>
<svg id="Layer_2" data-name="Layer 2" xmlns="http://www.w3.org/2000/svg" viewBox="0 0 342.85 63.22">
  <defs>
    <style>
      .cls-1 {
        fill: #1d1d1b;
      }
    </style>
  </defs>
  <g id="_Layer_" data-name="&amp;lt;Layer&amp;gt;">
    <g>
      <g>
        <polygon class="cls-1" points="91.99 54.35 88.76 59.79 88.74 59.79 85.51 54.35 84.29 54.35 84.29 62.99 85.39 62.99 85.39 56.44 85.45 56.44 88.58 61.7 88.81 61.7 91.94 56.44 92.01 56.44 92.01 62.99 93.16 62.99 93.16 54.35 91.99 54.35"/>
        <polygon class="cls-1" points="100.86 54.35 100.86 62.99 108.11 62.99 108.11 61.97 102.01 61.97 102.01 58.96 105.51 58.96 105.51 57.94 102.01 57.94 102.01 55.37 107.81 55.37 107.81 54.35 100.86 54.35"/>
        <path class="cls-1" d="M116,55.37v3.08h3.9c.95,0,1.65-.7,1.65-1.55,0-.38-.16-.74-.41-1-.42-.42-.94-.53-1.53-.53h-3.61ZM114.85,62.99v-8.64h4.76c1.11,0,1.88.3,2.42.87.42.45.66,1.03.66,1.69,0,1.16-.79,2.08-2.01,2.41l2.13,3.67h-1.31l-1.98-3.52h-3.52v3.52h-1.15Z"/>
        <polygon class="cls-1" points="137.5 54.35 134.27 59.79 134.24 59.79 131.01 54.35 129.8 54.35 129.8 62.99 130.89 62.99 130.89 56.44 130.96 56.44 134.08 61.7 134.32 61.7 137.44 56.44 137.51 56.44 137.51 62.99 138.66 62.99 138.66 54.35 137.5 54.35"/>
        <path class="cls-1" d="M149.67,55.7h.08l1.71,3.77h-3.5l1.71-3.77ZM149.21,54.35l-4.01,8.64h1.19l1.16-2.59h4.31l1.18,2.59h1.26l-4.01-8.64h-1.09Z"/>
        <rect class="cls-1" x="160.83" y="54.35" width="1.15" height="8.64"/>
        <path class="cls-1" d="M173.49,61.97c1.24,0,1.76-.32,2.37-.83.61-.61.97-1.5.97-2.47s-.33-1.81-.93-2.42c-.6-.54-1.18-.87-2.41-.87h-2.65v6.6h2.65ZM169.69,62.99v-8.64h3.84c1.61,0,2.51.46,3.3,1.2.77.78,1.2,1.88,1.2,3.11s-.46,2.41-1.27,3.19c-.8.71-1.62,1.14-3.23,1.14h-3.84Z"/>
        <path class="cls-1" d="M193.63,58.98v2.99h4.04c.5,0,.99-.15,1.32-.48.29-.28.45-.66.45-1.05s-.16-.71-.41-.97c-.29-.3-.71-.5-1.19-.5h-4.21ZM193.63,55.37v2.69h3.9c.41,0,.78-.12,1.05-.38.26-.27.41-.62.41-.99,0-.35-.13-.65-.36-.89-.3-.29-.71-.42-1.26-.42h-3.75ZM192.48,62.99v-8.64h5.02c.97,0,1.65.3,2.1.75.37.37.58.83.58,1.36,0,.83-.52,1.59-1.23,1.83,1.04.21,1.68,1.11,1.68,2.17,0,.62-.23,1.26-.78,1.79-.46.44-1.07.74-2.22.74h-5.15Z"/>
        <polygon class="cls-1" points="207.81 54.35 207.81 62.99 215.06 62.99 215.06 61.97 208.96 61.97 208.96 58.96 212.45 58.96 212.45 57.94 208.96 57.94 208.96 55.37 214.76 55.37 214.76 54.35 207.81 54.35"/>
        <path class="cls-1" d="M225.11,55.7h.08l1.71,3.77h-3.49l1.71-3.77ZM224.65,54.35l-4.01,8.64h1.19l1.16-2.59h4.31l1.18,2.59h1.26l-4.01-8.64h-1.09Z"/>
        <path class="cls-1" d="M244.26,61.5c-.94.93-2.37,1.72-4.14,1.72-2.79,0-4.75-2.04-4.75-4.55s1.96-4.54,4.7-4.54c1.55,0,3,.6,3.96,1.48l-.78.77c-.79-.75-2.01-1.23-3.15-1.23-2.06,0-3.52,1.6-3.52,3.53s1.47,3.52,3.56,3.52c1.38,0,2.57-.64,3.36-1.46l.77.75Z"/>
        <polygon class="cls-1" points="257.42 54.35 257.42 57.79 252.11 57.79 252.11 54.35 250.96 54.35 250.96 62.99 252.11 62.99 252.11 58.81 257.42 58.81 257.42 62.99 258.56 62.99 258.56 54.35 257.42 54.35"/>
      </g>
      <g>
        <g>
          <path class="cls-1" d="M14,6.02c0,3.33-2.4,5.41-4.11,6.7-.05.05-.05.14,0,.19,3.1.88,6.47,2.86,6.47,7.21,0,3.28-1.52,5.68-3.79,7.39-1.89,1.43-4.21,2.36-6.88,2.36-1.94,0-3-.32-3.97-.88-.55-.32-.88-.65-1.2-1.62-.37-1.06-.51-2.59-.51-3,.05-.14.46-.28.55-.28.55,1.66,1.11,2.59,2.03,3.37.97.79,2.26,1.25,4.71,1.25,2.77,0,6.05-2.08,6.05-6.65,0-3.83-2.08-6.98-6.7-6.98-.32,0-.97,0-1.71.14-.09-.14.32-1.2.51-1.29,4.25-.92,5.91-3.6,5.91-6.38,0-2.54-1.34-5.31-4.71-5.31-1.85,0-3.51.83-5.13,2.63-.09.05-.46-.55-.42-.69C2.73,2.33,5.31.02,8.36.02s5.59,2.59,5.64,6.01Z"/>
          <path class="cls-1" d="M25.27,30.05c7.62-3.47,11.55-9.33,13.08-15.11.05-.14-.05-.23-.18-.14-1.71,1.25-4.76,2.63-6.98,2.63-3,0-6.47-3.05-6.47-8.09,0-2.96,1.25-5.73,3.7-7.48C29.89.85,31.92.02,33.86.02c4.94,0,8.04,4.62,8.04,10.53,0,9.43-7.48,17-16.31,20.19-.09,0-.37-.6-.32-.69ZM27.4,7.64c0,5.45,3.42,7.67,6.65,7.67,1.25,0,2.96-.51,3.93-1.29.28-.23.51-.55.6-.88.23-.88.28-1.89.28-2.59,0-4.99-2.59-9.33-6.47-9.33-2.91,0-4.99,2.63-4.99,6.42Z"/>
        </g>
        <path class="cls-1" d="M71.88,27.35c.29.44.85.75,1.69.94.83.18,2.15.27,3.96.27.1,0,.15.09.15.28s-.05.27-.15.27c-1.4,0-2.49-.02-3.27-.05l-4.44-.05-3.42.05c-.65.03-1.51.05-2.6.05-.07,0-.1-.09-.1-.27s.03-.28.1-.28c1.29,0,2.24-.07,2.83-.23.6-.15,1-.45,1.2-.89.2-.44.31-1.12.31-2.04V4.21c0-.92-.1-1.59-.31-2.01-.2-.43-.6-.73-1.2-.89-.6-.17-1.54-.25-2.83-.25-.07,0-.1-.09-.1-.27s.03-.28.1-.28l2.55.05c1.43.06,2.57.09,3.42.09s1.8-.05,2.86-.14c.41,0,1.06-.02,1.94-.07.88-.05,1.65-.07,2.3-.07,3.13,0,5.64.63,7.53,1.88,1.89,1.25,2.83,3.16,2.83,5.72,0,2.02-.55,3.71-1.66,5.08-1.11,1.37-2.52,2.4-4.24,3.07-1.72.67-3.5,1.01-5.34,1.01-1.02,0-1.86-.08-2.5-.23-.1,0-.15-.07-.15-.23,0-.09.03-.18.08-.28.05-.09.11-.12.18-.09.54.12,1.16.18,1.84.18,2.25,0,4.14-.66,5.69-1.97,1.55-1.31,2.32-3.21,2.32-5.68s-.73-4.31-2.2-5.7c-1.46-1.39-3.34-2.08-5.62-2.08-1.22,0-2.11.06-2.65.18-.54.12-.94.4-1.17.85-.24.44-.36,1.18-.36,2.22v20.92c0,.98.14,1.69.43,2.13"/>
        <path class="cls-1" d="M121.99,22.2c.1,0,.19.02.28.05.08.03.13.08.13.14-.31,1.92-.46,3.94-.46,6.04,0,.24-.06.42-.18.53-.12.11-.33.16-.64.16h-21.39c-.07,0-.1-.09-.1-.27s.03-.28.1-.28c1.29,0,2.24-.08,2.83-.23.59-.15,1-.45,1.22-.89.22-.44.33-1.12.33-2.04V4.21c0-.92-.11-1.59-.33-2.02-.22-.43-.63-.72-1.22-.89-.6-.17-1.54-.25-2.83-.25-.07,0-.1-.09-.1-.27s.03-.27.1-.27h20.52c.31,0,.46.14.46.41l.1,5.63c0,.09-.08.15-.26.16-.17.02-.27-.02-.31-.11-.1-1.62-.65-2.88-1.63-3.78-.99-.9-2.3-1.35-3.93-1.35h-3.11c-1.19,0-2.07.08-2.63.25-.56.17-.95.46-1.17.87s-.33,1.03-.33,1.85v9.29h6.23c1.63,0,2.8-.24,3.5-.73.7-.49,1.05-1.31,1.05-2.47,0-.06.1-.09.31-.09s.31.03.31.09l-.05,3.71c0,.89.02,1.56.05,2.01l.05,2.2c0,.06-.1.09-.31.09s-.31-.03-.31-.09c0-1.34-.37-2.3-1.1-2.88-.73-.58-1.95-.87-3.65-.87h-6.08v10.53c0,.85.1,1.48.31,1.88.2.4.58.67,1.12.83s1.4.23,2.55.23h4.08c1.63,0,2.99-.52,4.08-1.56,1.09-1.04,1.82-2.47,2.19-4.3,0-.06.07-.09.2-.09"/>
        <path class="cls-1" d="M158.59,22.2c.1,0,.19.02.28.05.08.03.13.08.13.14-.31,1.92-.46,3.94-.46,6.04,0,.24-.06.42-.18.53-.12.11-.33.16-.64.16h-21.39c-.07,0-.1-.09-.1-.27s.03-.28.1-.28c1.29,0,2.24-.08,2.83-.23.59-.15,1-.45,1.22-.89.22-.44.33-1.12.33-2.04V4.21c0-.92-.11-1.59-.33-2.02-.22-.43-.63-.72-1.22-.89-.6-.17-1.54-.25-2.83-.25-.07,0-.1-.09-.1-.27s.03-.27.1-.27h20.52c.31,0,.46.14.46.41l.1,5.63c0,.09-.08.15-.26.16-.17.02-.27-.02-.31-.11-.1-1.62-.65-2.88-1.63-3.78-.99-.9-2.3-1.35-3.93-1.35h-3.11c-1.19,0-2.07.08-2.63.25-.56.17-.95.46-1.17.87-.22.41-.33,1.03-.33,1.85v9.29h6.23c1.63,0,2.8-.24,3.5-.73.7-.49,1.05-1.31,1.05-2.47,0-.06.1-.09.31-.09s.31.03.31.09l-.05,3.71c0,.89.02,1.56.05,2.01l.05,2.2c0,.06-.1.09-.31.09s-.31-.03-.31-.09c0-1.34-.37-2.3-1.1-2.88-.73-.58-1.95-.87-3.65-.87h-6.08v10.53c0,.85.1,1.48.31,1.88.2.4.58.67,1.12.83.54.15,1.4.23,2.55.23h4.08c1.63,0,2.99-.52,4.08-1.56,1.09-1.04,1.82-2.47,2.19-4.3,0-.06.07-.09.2-.09"/>
        <path class="cls-1" d="M184.73,14.1c2.65,0,4.55-.52,5.69-1.56,1.14-1.04,1.71-2.64,1.71-4.81,0-2.38-.59-4.09-1.76-5.13-1.17-1.04-2.88-1.56-5.13-1.56-1.33,0-2.25.21-2.76.64s-.77,1.3-.77,2.61v9.61c.85.12,1.86.18,3.01.18M206.74,28.84c0,.18-.03.27-.1.27h-6.59c-.85,0-2.45-1.27-4.8-3.8-2.35-2.53-5.14-6.01-8.37-10.44-.92.18-1.87.28-2.86.28-.2,0-.97-.05-2.3-.14v10.39c0,.95.1,1.63.31,2.06.2.43.6.72,1.2.87.6.15,1.54.23,2.83.23.1,0,.15.09.15.27s-.05.27-.15.27c-1.06,0-1.89-.02-2.5-.05l-3.52-.05-3.47.05c-.61.03-1.48.05-2.6.05-.07,0-.1-.09-.1-.27s.03-.27.1-.27c1.29,0,2.25-.08,2.86-.23.61-.15,1.03-.45,1.25-.89.22-.44.33-1.12.33-2.04V4.21c0-.92-.1-1.59-.31-2.01-.2-.43-.61-.73-1.2-.89-.6-.17-1.54-.25-2.83-.25-.1,0-.15-.09-.15-.27s.05-.27.15-.27l2.5.05c1.43.06,2.59.09,3.47.09.75,0,1.45-.01,2.09-.05.65-.03,1.19-.06,1.63-.09,1.26-.09,2.4-.14,3.42-.14,2.69,0,4.76.55,6.23,1.65,1.46,1.1,2.2,2.56,2.2,4.39,0,1.65-.54,3.14-1.61,4.46-1.07,1.33-2.49,2.37-4.26,3.14,2.86,3.69,5.27,6.58,7.22,8.68,1.96,2.09,3.69,3.59,5.21,4.51,1.51.92,3,1.37,4.47,1.37.07,0,.1.09.1.27"/>
        <path class="cls-1" d="M222.71,25.22c0,.88.1,1.53.31,1.92.2.4.58.66,1.12.8.54.14,1.43.21,2.65.21h5.56c1.94,0,3.49-.53,4.65-1.6,1.16-1.07,1.92-2.55,2.3-4.44,0-.09.09-.13.28-.11.19.02.28.07.28.16-.31,2.53-.46,4.62-.46,6.27,0,.24-.05.42-.15.53-.1.11-.31.16-.61.16h-23.59c-.07,0-.1-.09-.1-.27s.03-.28.1-.28c1.29,0,2.24-.08,2.83-.23.6-.15,1-.45,1.2-.89.2-.44.31-1.12.31-2.04V4.21c0-.92-.1-1.59-.31-2.02-.2-.43-.61-.72-1.2-.89-.6-.17-1.54-.25-2.83-.25-.07,0-.1-.09-.1-.27s.03-.28.1-.28l2.5.05c1.43.06,2.59.09,3.47.09.95,0,2.14-.03,3.57-.09l2.45-.05c.1,0,.15.09.15.28s-.05.27-.15.27c-1.26,0-2.19.08-2.78.25-.6.17-1,.47-1.22.92-.22.44-.33,1.12-.33,2.04v20.97Z"/>
        <path class="cls-1" d="M274.13,22.2c.1,0,.19.02.28.05.08.03.13.08.13.14-.31,1.92-.46,3.94-.46,6.04,0,.24-.06.42-.18.53-.12.11-.33.16-.64.16h-21.39c-.07,0-.1-.09-.1-.27s.03-.28.1-.28c1.29,0,2.24-.08,2.83-.23.59-.15,1-.45,1.22-.89.22-.44.33-1.12.33-2.04V4.21c0-.92-.11-1.59-.33-2.02-.22-.43-.63-.72-1.22-.89-.6-.17-1.54-.25-2.83-.25-.07,0-.1-.09-.1-.27s.03-.27.1-.27h20.52c.31,0,.46.14.46.41l.1,5.63c0,.09-.08.15-.26.16-.17.02-.27-.02-.31-.11-.1-1.62-.65-2.88-1.63-3.78-.99-.9-2.3-1.35-3.93-1.35h-3.11c-1.19,0-2.07.08-2.63.25-.56.17-.95.46-1.17.87-.22.41-.33,1.03-.33,1.85v9.29h6.23c1.63,0,2.8-.24,3.5-.73.7-.49,1.05-1.31,1.05-2.47,0-.06.1-.09.31-.09s.31.03.31.09l-.05,3.71c0,.89.02,1.56.05,2.01l.05,2.2c0,.06-.1.09-.31.09s-.31-.03-.31-.09c0-1.34-.37-2.3-1.1-2.88-.73-.58-1.95-.87-3.65-.87h-6.08v10.53c0,.85.1,1.48.31,1.88.2.4.58.67,1.12.83.54.15,1.4.23,2.55.23h4.08c1.63,0,2.99-.52,4.08-1.56,1.09-1.04,1.82-2.47,2.19-4.3,0-.06.07-.09.2-.09"/>
        <path class="cls-1" d="M294.65,8.97c.65.88,1.44,1.62,2.37,2.22.94.6,2.22,1.34,3.85,2.22,1.8.98,3.19,1.79,4.16,2.43.97.64,1.8,1.46,2.5,2.45.7.99,1.05,2.17,1.05,3.55,0,1.46-.41,2.79-1.23,3.98-.82,1.19-2.02,2.13-3.6,2.82-1.58.69-3.48,1.03-5.69,1.03-2.62,0-5.02-.53-7.2-1.6-.17-.09-.28-.2-.33-.32-.05-.12-.09-.3-.13-.55l-.66-6.22c-.03-.12.04-.2.23-.23.19-.03.3.02.33.14.54,2.2,1.56,4.09,3.04,5.68,1.48,1.59,3.45,2.38,5.9,2.38,1.7,0,3.14-.42,4.31-1.26,1.17-.84,1.76-2.17,1.76-4,0-1.37-.34-2.56-1.02-3.57-.68-1.01-1.51-1.84-2.48-2.5-.97-.66-2.29-1.43-3.96-2.31-1.63-.88-2.92-1.65-3.85-2.29-.94-.64-1.73-1.45-2.37-2.43-.65-.98-.97-2.12-.97-3.43,0-1.53.45-2.83,1.35-3.91.9-1.08,2.08-1.89,3.52-2.43,1.45-.53,2.99-.8,4.62-.8,2.01,0,4,.37,5.97,1.1.51.15.77.41.77.78l.36,5.27c0,.12-.09.18-.26.18s-.27-.06-.31-.18c-.27-1.59-1-3.06-2.19-4.42-1.19-1.36-2.91-2.04-5.16-2.04-1.91,0-3.33.5-4.26,1.49-.94.99-1.4,2.22-1.4,3.68,0,1.19.32,2.23.97,3.11"/>
        <path class="cls-1" d="M328.91,8.97c.65.88,1.44,1.62,2.37,2.22.94.6,2.22,1.34,3.85,2.22,1.8.98,3.19,1.79,4.16,2.43.97.64,1.8,1.46,2.5,2.45.7.99,1.05,2.17,1.05,3.55,0,1.46-.41,2.79-1.23,3.98-.82,1.19-2.02,2.13-3.6,2.82-1.58.69-3.48,1.03-5.69,1.03-2.62,0-5.02-.53-7.2-1.6-.17-.09-.28-.2-.33-.32-.05-.12-.09-.3-.13-.55l-.66-6.22c-.03-.12.04-.2.23-.23.19-.03.3.02.33.14.54,2.2,1.56,4.09,3.04,5.68,1.48,1.59,3.45,2.38,5.9,2.38,1.7,0,3.14-.42,4.31-1.26,1.17-.84,1.76-2.17,1.76-4,0-1.37-.34-2.56-1.02-3.57-.68-1.01-1.51-1.84-2.48-2.5-.97-.66-2.29-1.43-3.96-2.31-1.63-.88-2.92-1.65-3.85-2.29-.94-.64-1.73-1.45-2.37-2.43-.65-.98-.97-2.12-.97-3.43,0-1.53.45-2.83,1.35-3.91.9-1.08,2.08-1.89,3.52-2.43,1.45-.53,2.99-.8,4.62-.8,2.01,0,4,.37,5.97,1.1.51.15.77.41.77.78l.36,5.27c0,.12-.09.18-.26.18s-.27-.06-.31-.18c-.27-1.59-1-3.06-2.19-4.42-1.19-1.36-2.91-2.04-5.16-2.04-1.91,0-3.33.5-4.26,1.49-.94.99-1.4,2.22-1.4,3.68,0,1.19.32,2.23.97,3.11"/>
      </g>
    </g>
  </g>
</svg>